<?xml version="1.0" encoding="utf-8"?>
<!-- Generator: Adobe Illustrator 27.5.0, SVG Export Plug-In . SVG Version: 6.00 Build 0)  -->
<svg version="1.1" xmlns="http://www.w3.org/2000/svg" xmlns:xlink="http://www.w3.org/1999/xlink" x="0px" y="0px"
	 viewBox="0 0 500 500" style="enable-background:new 0 0 500 500;" xml:space="preserve">
<g id="BACKGROUND">
	<rect style="fill-rule:evenodd;clip-rule:evenodd;fill:#FFFFFF;" width="500" height="500"/>
</g>
<g id="OBJECTS">
	<text transform="matrix(1 0 0 1 152.8001 57.3375)"><tspan x="0" y="0" style="fill:#1D262D; font-family:'Montserrat-ExtraLight'; font-size:16.7605px;">ABSTRACT BULLET POINT</tspan><tspan x="51.496" y="20.113" style="fill:#1D262D; font-family:'Montserrat-Bold'; font-size:16.7605px;">COLLECTION</tspan></text>
	<g>
		<g>
			
				<ellipse transform="matrix(0.7411 -0.6714 0.6714 0.7411 -74.6369 160.7882)" style="opacity:0.37;fill:#6727CC;" cx="171.178" cy="177.177" rx="10.146" ry="10.146"/>
			<linearGradient id="SVGID_1_" gradientUnits="userSpaceOnUse" x1="107.7409" y1="174.691" x2="187.8595" y2="174.691">
				<stop  offset="0" style="stop-color:#3F82FE"/>
				<stop  offset="0.1735" style="stop-color:#6286FE"/>
				<stop  offset="0.4431" style="stop-color:#938BFF"/>
				<stop  offset="0.6803" style="stop-color:#B68FFF"/>
				<stop  offset="0.8736" style="stop-color:#CC91FF"/>
				<stop  offset="0.9988" style="stop-color:#D492FF"/>
			</linearGradient>
			<path style="opacity:0.68;fill:url(#SVGID_1_);" d="M122.417,151.288c14.437-13.001,34.969-17.26,37.283-13.305
				c0.987,1.686-2.147,3.506-1.62,6.736c1.494,9.164,30.289,9.198,29.773,15.348c-0.352,4.203-16.671,4.895-20.84,16.221
				c-0.474,1.288-2.342,5.694-0.387,9.111c3.887,6.794,18.444,2.161,19.914,5.969c1.546,4.005-11.903,16.016-29.052,19.921
				c-14.622,3.33-35.344,1.543-39.663-8.487c-3.998-9.283,7.707-21.789,3.623-25.444c-3.045-2.725-10.444,3.427-12.922,1.008
				C105.478,175.389,111.557,161.068,122.417,151.288z"/>
			
				<ellipse transform="matrix(0.7923 -0.6102 0.6102 0.7923 -51.3011 119.1266)" style="opacity:0.37;fill:#6727CC;" cx="149.306" cy="134.907" rx="4.175" ry="4.175"/>
			
				<ellipse transform="matrix(0.7923 -0.6102 0.6102 0.7923 -101.6273 116.0645)" style="opacity:0.37;fill:#6727CC;" cx="119.646" cy="207.288" rx="5.531" ry="5.531"/>
		</g>
		<g>
			<g>
				<circle style="fill:#2D2D2D;" cx="146.458" cy="176.326" r="25.769"/>
			</g>
			<text transform="matrix(1 0 0 1 133.5494 187.7844)" style="fill:#FFFFFF; font-family:'Bebas'; font-size:28.7964px;">01</text>
		</g>
	</g>
	<g>
		<g>
			
				<ellipse transform="matrix(0.5545 -0.8322 0.8322 0.5545 -13.0192 286.6629)" style="opacity:0.4;fill:#1BBF4D;" cx="261.211" cy="155.49" rx="8.904" ry="8.904"/>
			
				<linearGradient id="SVGID_00000031925488936639928850000003187919226135990436_" gradientUnits="userSpaceOnUse" x1="209.0278" y1="167.8945" x2="279.3383" y2="167.8945" gradientTransform="matrix(-0.2445 -0.9696 0.9696 -0.2445 161.0296 453.744)">
				<stop  offset="0" style="stop-color:#00DBD2"/>
				<stop  offset="0.3239" style="stop-color:#30E9B3"/>
				<stop  offset="0.6124" style="stop-color:#53F49D"/>
				<stop  offset="0.8477" style="stop-color:#69FB8F"/>
				<stop  offset="1" style="stop-color:#71FD8A"/>
			</linearGradient>
			<path style="opacity:0.68;fill:url(#SVGID_00000031925488936639928850000003187919226135990436_);" d="M249.646,202.539
				c-14.161-9.495-22.191-26.052-19.322-28.87c1.223-1.201,3.444,1.074,6.079-0.067c7.478-3.238,1.327-27.748,6.671-28.629
				c3.653-0.602,7.743,13.135,18.276,14.252c1.197,0.127,5.348,0.771,7.836-1.626c4.947-4.765-2.12-16.159,0.805-18.227
				c3.077-2.175,16.183,6.692,23.186,20.446c5.972,11.728,8.898,29.744,1.29,35.572c-7.042,5.394-20.195-1.882-22.429,2.378
				c-1.666,3.176,5.157,8.152,3.63,10.779C273.789,211.781,260.298,209.682,249.646,202.539z"/>
			
				<ellipse transform="matrix(0.619 -0.7854 0.7854 0.619 -56.2572 250.3785)" style="opacity:0.4;fill:#1BBF4D;" cx="229.937" cy="183.174" rx="3.664" ry="3.664"/>
			
				<ellipse transform="matrix(0.619 -0.7854 0.7854 0.619 -37.9882 307.4489)" style="opacity:0.4;fill:#1BBF4D;" cx="297.893" cy="192.879" rx="4.854" ry="4.854"/>
		</g>
		<g>
			<circle style="fill:#2D2D2D;" cx="265.634" cy="176.326" r="25.769"/>
			<text transform="matrix(1 0 0 1 250.036 187.7845)" style="fill:#FFFFFF; font-family:'Bebas'; font-size:28.7964px;">02</text>
		</g>
	</g>
	<g>
		<g style="opacity:0.63;">
			
				<ellipse transform="matrix(0.0493 -0.9988 0.9988 0.0493 190.6132 581.2289)" style="opacity:0.68;fill:#FF5A27;" cx="400.63" cy="190.484" rx="9.803" ry="9.803"/>
			
				<linearGradient id="SVGID_00000036944868418917353030000004311292275967283352_" gradientUnits="userSpaceOnUse" x1="361.4085" y1="175.1962" x2="438.8188" y2="175.1962" gradientTransform="matrix(0.7071 0.7071 -0.7071 0.7071 227.316 -233.9921)">
				<stop  offset="0.0012" style="stop-color:#FF9A25"/>
				<stop  offset="0.1544" style="stop-color:#FF8543"/>
				<stop  offset="0.4303" style="stop-color:#FF6374"/>
				<stop  offset="0.6729" style="stop-color:#FF4A97"/>
				<stop  offset="0.8707" style="stop-color:#FF3BAD"/>
				<stop  offset="0.9988" style="stop-color:#FF35B5"/>
			</linearGradient>
			<path style="opacity:0.68;fill:url(#SVGID_00000036944868418917353030000004311292275967283352_);" d="M385.003,139.482
				c18.745,0.981,35.683,12.099,34.562,16.382c-0.478,1.826-3.862,0.929-5.709,3.495c-5.24,7.282,14.409,26.978,9.855,30.827
				c-3.113,2.631-14.734-8.045-25.32-3.155c-1.203,0.556-5.49,2.291-6.489,5.96c-1.986,7.297,11.125,14.077,9.528,17.683
				c-1.68,3.793-19.074,2.81-33.458-6.238c-12.265-7.715-25.201-23.093-21.3-32.896c3.611-9.074,20.152-9.621,19.859-14.909
				c-0.219-3.943-9.477-4.794-9.517-8.14C356.965,144.375,370.903,138.744,385.003,139.482z"/>
			
				<ellipse transform="matrix(0.1288 -0.9917 0.9917 0.1288 215.7438 538.892)" style="opacity:0.68;fill:#FF5A27;" cx="414.566" cy="146.662" rx="4.034" ry="4.034"/>
			
				<ellipse transform="matrix(0.1288 -0.9917 0.9917 0.1288 126.0612 495.1862)" style="opacity:0.68;fill:#FF5A27;" cx="344.851" cy="175.849" rx="5.344" ry="5.344"/>
		</g>
		<g>
			<circle style="fill:#2D2D2D;" cx="384.81" cy="176.326" r="25.769"/>
			<text transform="matrix(1 0 0 1 369.2123 187.7845)" style="fill:#FFFFFF; font-family:'Bebas'; font-size:28.7964px;">03</text>
		</g>
	</g>
	<g>
		<ellipse style="opacity:0.26;fill:#6F3AF4;" cx="109.455" cy="281.475" rx="8.661" ry="9.258"/>
		
			<linearGradient id="SVGID_00000031900648183145022350000004652132176690452626_" gradientUnits="userSpaceOnUse" x1="55.3034" y1="279.2064" x2="123.6938" y2="279.2064">
			<stop  offset="0" style="stop-color:#00EDE1"/>
			<stop  offset="0.2054" style="stop-color:#00E5E3"/>
			<stop  offset="0.5224" style="stop-color:#00CFE9"/>
			<stop  offset="0.9095" style="stop-color:#00ACF3"/>
			<stop  offset="1" style="stop-color:#00A3F6"/>
		</linearGradient>
		<path style="opacity:0.68;fill:url(#SVGID_00000031900648183145022350000004652132176690452626_);" d="M67.831,257.851
			c12.323-11.863,29.85-15.75,31.825-12.141c0.842,1.539-1.832,3.2-1.383,6.146c1.275,8.363,25.855,8.394,25.415,14.005
			c-0.301,3.836-14.23,4.467-17.789,14.802c-0.405,1.175-1.999,5.196-0.33,8.314c3.318,6.199,15.744,1.972,16.999,5.447
			c1.32,3.655-10.161,14.615-24.799,18.178c-12.482,3.039-30.17,1.408-33.857-7.745c-3.412-8.471,6.579-19.883,3.092-23.219
			c-2.599-2.487-8.915,3.127-11.03,0.919C53.372,279.843,58.561,266.775,67.831,257.851z"/>
		<ellipse style="opacity:0.26;fill:#6F3AF4;" cx="90.784" cy="242.903" rx="3.564" ry="3.81"/>
		<ellipse style="opacity:0.26;fill:#6F3AF4;" cx="65.466" cy="308.953" rx="4.721" ry="5.047"/>
		<g>
			<ellipse style="fill:#2D2D2D;" cx="89.733" cy="278.729" rx="23.472" ry="25.092"/>
			<text transform="matrix(0.9354 0 0 1 75.5259 289.8867)" style="fill:#FFFFFF; font-family:'Bebas'; font-size:28.04px;">04</text>
		</g>
	</g>
	<g>
		<g style="opacity:0.63;">
			
				<ellipse transform="matrix(0.9873 -0.1592 0.1592 0.9873 -40.5072 31.4918)" style="fill:#FF27E0;" cx="176.357" cy="268.641" rx="9.267" ry="9.267"/>
			
				<linearGradient id="SVGID_00000127017730053624771700000018086837725410140550_" gradientUnits="userSpaceOnUse" x1="175.1685" y1="262.9399" x2="248.3497" y2="262.9399" gradientTransform="matrix(-0.8385 -0.5449 0.5449 -0.8385 227.3298 618.0411)">
				<stop  offset="0.0012" style="stop-color:#F60DB2"/>
				<stop  offset="0.0826" style="stop-color:#F011BA"/>
				<stop  offset="0.4726" style="stop-color:#D91FDD"/>
				<stop  offset="0.7919" style="stop-color:#CA29F3"/>
				<stop  offset="0.9988" style="stop-color:#C52CFB"/>
			</linearGradient>
			<path style="opacity:0.68;fill:url(#SVGID_00000127017730053624771700000018086837725410140550_);" d="M200.821,312.738
				c-17.527,2.773-35.373-4.184-35.177-8.364c0.084-1.783,3.389-1.617,4.593-4.353c3.417-7.763-18.621-22.119-15.166-26.573
				c2.362-3.044,15.205,4.547,24.034-2.053c1.004-0.75,4.627-3.196,4.831-6.785c0.404-7.138-13.052-10.834-12.282-14.482
				c0.809-3.837,17.087-6.343,32.166-0.8c12.857,4.727,27.839,16.408,26.155,26.24c-1.558,9.1-16.747,12.853-15.438,17.686
				c0.976,3.603,9.705,2.573,10.399,5.659C225.789,302.709,214.005,310.652,200.821,312.738z"/>
			
				<ellipse transform="matrix(0.9968 -0.08 0.08 0.9968 -24.3945 14.7615)" style="fill:#FF27E0;" cx="172.073" cy="311.902" rx="3.813" ry="3.813"/>
			
				<ellipse transform="matrix(0.9968 -0.08 0.08 0.9968 -20.9529 19.3291)" style="fill:#FF27E0;" cx="230.813" cy="271.225" rx="5.052" ry="5.052"/>
		</g>
		<g>
			<circle style="fill:#2D2D2D;" cx="196.355" cy="280" r="25.769"/>
			<text transform="matrix(1 0 0 1 180.7576 291.4586)" style="fill:#FFFFFF; font-family:'Bebas'; font-size:28.7964px;">05</text>
		</g>
	</g>
	<g>
		<g style="opacity:0.68;">
			
				<linearGradient id="SVGID_00000182493848368250852970000001493190883360362679_" gradientUnits="userSpaceOnUse" x1="271.4409" y1="281.8375" x2="349.5678" y2="281.8375" gradientTransform="matrix(0.0256 -0.9997 0.9997 0.0256 17.1081 579.8376)">
				<stop  offset="0" style="stop-color:#00DBD2"/>
				<stop  offset="0.3239" style="stop-color:#30E9B3"/>
				<stop  offset="0.6124" style="stop-color:#53F49D"/>
				<stop  offset="0.8477" style="stop-color:#69FB8F"/>
				<stop  offset="1" style="stop-color:#71FD8A"/>
			</linearGradient>
			<path style="opacity:0.68;fill:url(#SVGID_00000182493848368250852970000001493190883360362679_);" d="M314.786,314.965
				c1.095-1.171,1.044-3.019-0.114-4.126l-3.409-3.26c-1.158-1.107-1.209-2.955-0.114-4.126c1.095-1.171,2.922-1.223,4.08-0.116
				l7.079,6.769c1.158,1.107,2.985,1.056,4.08-0.116c1.095-1.171,1.044-3.019-0.114-4.126l-6.291-6.016
				c-1.158-1.108-1.209-2.955-0.114-4.126c1.095-1.171,2.922-1.223,4.08-0.116c3.064,2.93,6.129,5.86,9.193,8.791
				c1.394,1.802,3.844,1.778,4.899,0.582c0.888-1.007,0.87-2.935-0.375-4.289c-2.377-2.273-4.754-4.546-7.131-6.819
				c-1.158-1.107-1.209-2.955-0.114-4.126c1.095-1.171,2.922-1.223,4.08-0.116l-0.466-0.446c1.158,1.108,2.985,1.056,4.08-0.116
				c1.095-1.171,1.044-3.019-0.114-4.126l-0.846-0.809c-1.158-1.107-1.209-2.955-0.114-4.126c1.095-1.171,2.922-1.223,4.08-0.116
				l-0.26-0.249c1.158,1.107,2.985,1.056,4.08-0.115c1.095-1.171,1.044-3.019-0.114-4.126l-38.795-37.097
				c-1.158-1.107-2.985-1.056-4.08,0.116c-1.095,1.171-1.044,3.019,0.114,4.126l1.049,1.003c1.158,1.108,1.209,2.955,0.114,4.126
				c-1.095,1.171-2.922,1.223-4.08,0.116l-6.874-6.573c-1.158-1.107-2.985-1.055-4.08,0.116c-1.095,1.171-1.044,3.019,0.114,4.126
				l0.336,0.321c0.796,0.998,0.633,1.88,0.447,2.331c-0.247,0.598-0.424,0.782-0.769,1.176c-0.035,0.033-0.069,0.068-0.102,0.104
				c-1.095,1.171-1.044,3.019,0.114,4.126l9.433,9.022c1.078,1.113,0.902,2.123,0.698,2.616c-0.258,0.625-0.439,0.797-0.815,1.23
				c-0.01,0.01-0.02,0.019-0.029,0.03c-1.095,1.171-1.044,3.019,0.114,4.126l3.67,3.509c1.158,1.107,1.209,2.955,0.114,4.126
				c-1.095,1.171-2.922,1.223-4.08,0.116l-12.058-11.53c-1.108-1.059-2.827-1.057-3.932-0.03l-0.001-0.012
				c-0.552,0.532-0.666,0.735-1.35,1.071c-0.476,0.233-1.463,0.468-2.622-0.558l-4.448-4.25c-1.158-1.107-2.985-1.056-4.08,0.116
				c-1.095,1.171-1.044,3.019,0.114,4.126l2.893,2.767c1.078,1.113,0.902,2.123,0.698,2.616c-0.228,0.553-0.397,0.752-0.694,1.091
				c-0.055,0.051-0.11,0.103-0.162,0.159c-1.095,1.171-1.044,3.019,0.114,4.126l11.1,10.614c-1.125-0.632-2.569-0.452-3.494,0.538
				c-1.095,1.171-1.044,3.019,0.114,4.126l14.639,13.999c1.158,1.107,2.985,1.056,4.08-0.116c0.925-0.99,1.023-2.457,0.335-3.558
				l12.02,11.494C311.864,316.188,313.691,316.136,314.786,314.965z"/>
			
				<linearGradient id="SVGID_00000181083276443035314620000013843711709495824513_" gradientUnits="userSpaceOnUse" x1="325.3223" y1="304.0195" x2="339.5323" y2="304.0195" gradientTransform="matrix(0.0256 -0.9997 0.9997 0.0256 17.1081 579.8376)">
				<stop  offset="0" style="stop-color:#00DBD2"/>
				<stop  offset="0.3239" style="stop-color:#30E9B3"/>
				<stop  offset="0.6124" style="stop-color:#53F49D"/>
				<stop  offset="0.8477" style="stop-color:#69FB8F"/>
				<stop  offset="1" style="stop-color:#71FD8A"/>
			</linearGradient>
			<path style="opacity:0.68;fill:url(#SVGID_00000181083276443035314620000013843711709495824513_);" d="M323.522,248.898
				c1.156-1.11,2.982-1.063,4.08,0.106l8.061,8.582c1.098,1.168,1.051,3.016-0.105,4.126l0,0c-1.155,1.11-2.982,1.063-4.08-0.106
				l-8.061-8.582C322.32,251.856,322.367,250.008,323.522,248.898L323.522,248.898z"/>
			
				<linearGradient id="SVGID_00000053530603652120493040000018386629625920394941_" gradientUnits="userSpaceOnUse" x1="278.6586" y1="253.8584" x2="298.9079" y2="253.8584" gradientTransform="matrix(0.0256 -0.9997 0.9997 0.0256 17.1081 579.8376)">
				<stop  offset="0" style="stop-color:#00DBD2"/>
				<stop  offset="0.3239" style="stop-color:#30E9B3"/>
				<stop  offset="0.6124" style="stop-color:#53F49D"/>
				<stop  offset="0.8477" style="stop-color:#69FB8F"/>
				<stop  offset="1" style="stop-color:#71FD8A"/>
			</linearGradient>
			<path style="opacity:0.68;fill:url(#SVGID_00000053530603652120493040000018386629625920394941_);" d="M269.353,288.148
				c1.156-1.11,2.982-1.063,4.08,0.106l13.877,14.772c1.098,1.168,1.051,3.016-0.105,4.126l0,0c-1.155,1.11-2.982,1.063-4.08-0.106
				l-13.877-14.772C268.15,291.105,268.197,289.258,269.353,288.148L269.353,288.148z"/>
			
				<linearGradient id="SVGID_00000088110545789137415600000004281574657219128709_" gradientUnits="userSpaceOnUse" x1="276.0739" y1="317.6118" x2="282.142" y2="317.6118" gradientTransform="matrix(0.0256 -0.9997 0.9997 0.0256 17.1081 579.8376)">
				<stop  offset="0" style="stop-color:#00DBD2"/>
				<stop  offset="0.3239" style="stop-color:#30E9B3"/>
				<stop  offset="0.6124" style="stop-color:#53F49D"/>
				<stop  offset="0.8477" style="stop-color:#69FB8F"/>
				<stop  offset="1" style="stop-color:#71FD8A"/>
			</linearGradient>
			<path style="opacity:0.68;fill:url(#SVGID_00000088110545789137415600000004281574657219128709_);" d="M339.697,306.755
				c1.201-1.154,3.1-1.105,4.242,0.11c1.141,1.215,1.092,3.135-0.109,4.289c-1.201,1.154-3.1,1.105-4.242-0.11
				C338.447,309.83,338.496,307.909,339.697,306.755z"/>
			
				<linearGradient id="SVGID_00000051380402523444684730000003453784207726830246_" gradientUnits="userSpaceOnUse" x1="270.3916" y1="266.0896" x2="276.4597" y2="266.0896" gradientTransform="matrix(0.0256 -0.9997 0.9997 0.0256 17.1081 579.8376)">
				<stop  offset="0" style="stop-color:#00DBD2"/>
				<stop  offset="0.3239" style="stop-color:#30E9B3"/>
				<stop  offset="0.6124" style="stop-color:#53F49D"/>
				<stop  offset="0.8477" style="stop-color:#69FB8F"/>
				<stop  offset="1" style="stop-color:#71FD8A"/>
			</linearGradient>
			<path style="opacity:0.68;fill:url(#SVGID_00000051380402523444684730000003453784207726830246_);" d="M288.046,311.116
				c1.201-1.154,3.1-1.105,4.242,0.11c1.141,1.215,1.092,3.135-0.109,4.289c-1.201,1.154-3.1,1.105-4.242-0.11
				C286.796,314.191,286.845,312.27,288.046,311.116z"/>
			
				<linearGradient id="SVGID_00000003104447584214293660000003848994351394716825_" gradientUnits="userSpaceOnUse" x1="276.3662" y1="321.3859" x2="296.6155" y2="321.3859" gradientTransform="matrix(0.0256 -0.9997 0.9997 0.0256 17.1081 579.8376)">
				<stop  offset="0" style="stop-color:#00DBD2"/>
				<stop  offset="0.3239" style="stop-color:#30E9B3"/>
				<stop  offset="0.6124" style="stop-color:#53F49D"/>
				<stop  offset="0.8477" style="stop-color:#69FB8F"/>
				<stop  offset="1" style="stop-color:#71FD8A"/>
			</linearGradient>
			<path style="opacity:0.68;fill:url(#SVGID_00000003104447584214293660000003848994351394716825_);" d="M336.799,292.169
				c1.156-1.11,2.982-1.063,4.08,0.106l13.877,14.772c1.098,1.168,1.051,3.016-0.105,4.126l0,0c-1.155,1.11-2.982,1.063-4.08-0.106
				l-13.877-14.772C335.597,295.126,335.644,293.279,336.799,292.169L336.799,292.169z"/>
			
				<linearGradient id="SVGID_00000078739099861322167900000010093945766778529672_" gradientUnits="userSpaceOnUse" x1="266.2267" y1="293.6135" x2="272.2948" y2="293.6135" gradientTransform="matrix(0.0256 -0.9997 0.9997 0.0256 17.1081 579.8376)">
				<stop  offset="0" style="stop-color:#00DBD2"/>
				<stop  offset="0.3239" style="stop-color:#30E9B3"/>
				<stop  offset="0.6124" style="stop-color:#53F49D"/>
				<stop  offset="0.8477" style="stop-color:#69FB8F"/>
				<stop  offset="1" style="stop-color:#71FD8A"/>
			</linearGradient>
			<path style="opacity:0.68;fill:url(#SVGID_00000078739099861322167900000010093945766778529672_);" d="M315.454,315.985
				c1.201-1.154,3.1-1.105,4.242,0.11c1.141,1.215,1.092,3.135-0.109,4.289c-1.201,1.154-3.1,1.105-4.242-0.11
				C314.204,319.059,314.253,317.139,315.454,315.985z"/>
		</g>
		<g>
			<circle style="fill:#2D2D2D;" cx="307.249" cy="280" r="25.769"/>
			<text transform="matrix(1 0 0 1 291.6512 291.4586)" style="fill:#FFFFFF; font-family:'Bebas'; font-size:28.7964px;">06</text>
		</g>
	</g>
	<g>
		<g style="opacity:0.68;">
			
				<linearGradient id="SVGID_00000017491591470453389170000004256811224734036889_" gradientUnits="userSpaceOnUse" x1="276.8335" y1="395.4293" x2="354.9605" y2="395.4293" gradientTransform="matrix(-0.0256 0.9997 -0.9997 -0.0256 821.9845 -24.0766)">
				<stop  offset="0.0012" style="stop-color:#FF9A25"/>
				<stop  offset="0.1544" style="stop-color:#FF8543"/>
				<stop  offset="0.4303" style="stop-color:#FF6374"/>
				<stop  offset="0.6729" style="stop-color:#FF4A97"/>
				<stop  offset="0.8707" style="stop-color:#FF3BAD"/>
				<stop  offset="0.9988" style="stop-color:#FF35B5"/>
			</linearGradient>
			<path style="opacity:0.68;fill:url(#SVGID_00000017491591470453389170000004256811224734036889_);" d="M410.614,243.278
				c-1.095,1.171-1.044,3.019,0.114,4.126l3.409,3.26c1.158,1.107,1.209,2.955,0.114,4.126c-1.095,1.171-2.922,1.223-4.08,0.116
				l-7.079-6.769c-1.158-1.107-2.985-1.056-4.08,0.116c-1.095,1.171-1.044,3.019,0.114,4.126l6.291,6.016
				c1.158,1.108,1.209,2.955,0.114,4.126c-1.095,1.171-2.922,1.223-4.08,0.116c-3.064-2.93-6.129-5.86-9.193-8.791
				c-1.394-1.802-3.844-1.778-4.899-0.582c-0.888,1.007-0.87,2.935,0.375,4.289c2.377,2.273,4.754,4.546,7.131,6.819
				c1.158,1.107,1.209,2.955,0.114,4.126c-1.095,1.171-2.922,1.223-4.08,0.116l0.466,0.446c-1.158-1.108-2.985-1.056-4.08,0.116
				c-1.095,1.171-1.044,3.019,0.114,4.126l0.846,0.809c1.158,1.107,1.209,2.955,0.114,4.126c-1.095,1.171-2.922,1.223-4.08,0.116
				l0.26,0.249c-1.158-1.107-2.985-1.056-4.08,0.115c-1.095,1.171-1.044,3.019,0.114,4.126l38.795,37.097
				c1.158,1.107,2.985,1.056,4.08-0.116c1.095-1.171,1.044-3.019-0.114-4.126l-1.049-1.003c-1.158-1.108-1.209-2.955-0.114-4.126
				c1.095-1.171,2.922-1.223,4.08-0.116l6.874,6.573c1.158,1.107,2.985,1.055,4.08-0.116c1.095-1.171,1.044-3.019-0.114-4.126
				l-0.336-0.321c-0.796-0.998-0.633-1.88-0.447-2.331c0.247-0.598,0.424-0.782,0.769-1.176c0.035-0.033,0.069-0.068,0.102-0.104
				c1.095-1.171,1.044-3.019-0.114-4.126l-9.433-9.022c-1.078-1.113-0.902-2.123-0.698-2.616c0.258-0.625,0.439-0.797,0.815-1.23
				c0.01-0.01,0.02-0.019,0.029-0.03c1.095-1.171,1.044-3.019-0.114-4.126l-3.67-3.509c-1.158-1.107-1.209-2.955-0.114-4.126
				c1.095-1.171,2.922-1.223,4.08-0.116l12.058,11.53c1.108,1.059,2.827,1.057,3.932,0.03l0.001,0.012
				c0.552-0.532,0.666-0.735,1.35-1.071c0.476-0.233,1.463-0.468,2.622,0.558l4.448,4.25c1.158,1.107,2.985,1.056,4.08-0.116
				c1.095-1.171,1.044-3.019-0.114-4.126l-2.893-2.767c-1.078-1.113-0.902-2.123-0.698-2.616c0.228-0.553,0.397-0.752,0.694-1.091
				c0.055-0.051,0.11-0.103,0.162-0.159c1.095-1.171,1.044-3.019-0.114-4.126l-11.1-10.614c1.125,0.632,2.569,0.452,3.494-0.538
				c1.095-1.171,1.044-3.019-0.114-4.126l-14.639-13.999c-1.158-1.107-2.985-1.056-4.08,0.116c-0.925,0.99-1.023,2.457-0.335,3.558
				l-12.02-11.494C413.536,242.055,411.709,242.106,410.614,243.278z"/>
			
				<linearGradient id="SVGID_00000058583717380273987030000003351751782009548719_" gradientUnits="userSpaceOnUse" x1="330.715" y1="417.6112" x2="344.925" y2="417.6112" gradientTransform="matrix(-0.0256 0.9997 -0.9997 -0.0256 821.9845 -24.0766)">
				<stop  offset="0.0012" style="stop-color:#FF9A25"/>
				<stop  offset="0.1544" style="stop-color:#FF8543"/>
				<stop  offset="0.4303" style="stop-color:#FF6374"/>
				<stop  offset="0.6729" style="stop-color:#FF4A97"/>
				<stop  offset="0.8707" style="stop-color:#FF3BAD"/>
				<stop  offset="0.9988" style="stop-color:#FF35B5"/>
			</linearGradient>
			<path style="opacity:0.68;fill:url(#SVGID_00000058583717380273987030000003351751782009548719_);" d="M401.878,309.345
				c-1.156,1.11-2.982,1.063-4.08-0.106l-8.061-8.582c-1.098-1.168-1.051-3.016,0.105-4.126l0,0c1.155-1.11,2.982-1.063,4.08,0.106
				l8.061,8.582C403.08,306.387,403.033,308.235,401.878,309.345L401.878,309.345z"/>
			
				<linearGradient id="SVGID_00000083769448996752782320000000438115432224481952_" gradientUnits="userSpaceOnUse" x1="284.0513" y1="367.4501" x2="304.3006" y2="367.4501" gradientTransform="matrix(-0.0256 0.9997 -0.9997 -0.0256 821.9845 -24.0766)">
				<stop  offset="0.0012" style="stop-color:#FF9A25"/>
				<stop  offset="0.1544" style="stop-color:#FF8543"/>
				<stop  offset="0.4303" style="stop-color:#FF6374"/>
				<stop  offset="0.6729" style="stop-color:#FF4A97"/>
				<stop  offset="0.8707" style="stop-color:#FF3BAD"/>
				<stop  offset="0.9988" style="stop-color:#FF35B5"/>
			</linearGradient>
			<path style="opacity:0.68;fill:url(#SVGID_00000083769448996752782320000000438115432224481952_);" d="M456.047,270.095
				c-1.156,1.11-2.982,1.063-4.08-0.106l-13.877-14.772c-1.098-1.168-1.051-3.016,0.105-4.126l0,0
				c1.155-1.11,2.982-1.063,4.08,0.106l13.877,14.772C457.25,267.137,457.203,268.985,456.047,270.095L456.047,270.095z"/>
			
				<linearGradient id="SVGID_00000156570517660889002180000001923934698515421064_" gradientUnits="userSpaceOnUse" x1="281.4665" y1="431.2035" x2="287.5347" y2="431.2035" gradientTransform="matrix(-0.0256 0.9997 -0.9997 -0.0256 821.9845 -24.0766)">
				<stop  offset="0.0012" style="stop-color:#FF9A25"/>
				<stop  offset="0.1544" style="stop-color:#FF8543"/>
				<stop  offset="0.4303" style="stop-color:#FF6374"/>
				<stop  offset="0.6729" style="stop-color:#FF4A97"/>
				<stop  offset="0.8707" style="stop-color:#FF3BAD"/>
				<stop  offset="0.9988" style="stop-color:#FF35B5"/>
			</linearGradient>
			<path style="opacity:0.68;fill:url(#SVGID_00000156570517660889002180000001923934698515421064_);" d="M385.703,251.488
				c-1.201,1.154-3.1,1.105-4.242-0.11c-1.141-1.215-1.092-3.135,0.109-4.289c1.201-1.154,3.1-1.105,4.242,0.11
				C386.953,248.413,386.904,250.334,385.703,251.488z"/>
			
				<linearGradient id="SVGID_00000087398385742195858510000012726573737043836091_" gradientUnits="userSpaceOnUse" x1="275.7843" y1="379.6813" x2="281.8524" y2="379.6813" gradientTransform="matrix(-0.0256 0.9997 -0.9997 -0.0256 821.9845 -24.0766)">
				<stop  offset="0.0012" style="stop-color:#FF9A25"/>
				<stop  offset="0.1544" style="stop-color:#FF8543"/>
				<stop  offset="0.4303" style="stop-color:#FF6374"/>
				<stop  offset="0.6729" style="stop-color:#FF4A97"/>
				<stop  offset="0.8707" style="stop-color:#FF3BAD"/>
				<stop  offset="0.9988" style="stop-color:#FF35B5"/>
			</linearGradient>
			<path style="opacity:0.68;fill:url(#SVGID_00000087398385742195858510000012726573737043836091_);" d="M437.354,247.127
				c-1.201,1.154-3.1,1.105-4.242-0.11c-1.141-1.215-1.092-3.135,0.109-4.289c1.201-1.154,3.1-1.105,4.242,0.11
				C438.604,244.052,438.555,245.973,437.354,247.127z"/>
			
				<linearGradient id="SVGID_00000096058387169683548650000006543609187111012999_" gradientUnits="userSpaceOnUse" x1="281.7589" y1="434.9777" x2="302.0082" y2="434.9777" gradientTransform="matrix(-0.0256 0.9997 -0.9997 -0.0256 821.9845 -24.0766)">
				<stop  offset="0.0012" style="stop-color:#FF9A25"/>
				<stop  offset="0.1544" style="stop-color:#FF8543"/>
				<stop  offset="0.4303" style="stop-color:#FF6374"/>
				<stop  offset="0.6729" style="stop-color:#FF4A97"/>
				<stop  offset="0.8707" style="stop-color:#FF3BAD"/>
				<stop  offset="0.9988" style="stop-color:#FF35B5"/>
			</linearGradient>
			<path style="opacity:0.68;fill:url(#SVGID_00000096058387169683548650000006543609187111012999_);" d="M388.601,266.074
				c-1.156,1.11-2.982,1.063-4.08-0.106l-13.876-14.772c-1.098-1.168-1.051-3.016,0.105-4.126l0,0
				c1.155-1.11,2.982-1.063,4.08,0.106l13.877,14.772C389.803,263.117,389.756,264.964,388.601,266.074L388.601,266.074z"/>
			
				<linearGradient id="SVGID_00000124128873869859980210000014602948624196575887_" gradientUnits="userSpaceOnUse" x1="271.6193" y1="407.2053" x2="277.6875" y2="407.2053" gradientTransform="matrix(-0.0256 0.9997 -0.9997 -0.0256 821.9845 -24.0766)">
				<stop  offset="0.0012" style="stop-color:#FF9A25"/>
				<stop  offset="0.1544" style="stop-color:#FF8543"/>
				<stop  offset="0.4303" style="stop-color:#FF6374"/>
				<stop  offset="0.6729" style="stop-color:#FF4A97"/>
				<stop  offset="0.8707" style="stop-color:#FF3BAD"/>
				<stop  offset="0.9988" style="stop-color:#FF35B5"/>
			</linearGradient>
			<path style="opacity:0.68;fill:url(#SVGID_00000124128873869859980210000014602948624196575887_);" d="M409.946,242.258
				c-1.201,1.154-3.1,1.105-4.242-0.11c-1.141-1.215-1.092-3.135,0.109-4.289c1.201-1.154,3.1-1.105,4.242,0.11
				C411.196,239.184,411.147,241.104,409.946,242.258z"/>
		</g>
		<g>
			<circle style="fill:#2D2D2D;" cx="418.143" cy="280" r="25.769"/>
			<text transform="matrix(1 0 0 1 402.5449 291.4586)" style="fill:#FFFFFF; font-family:'Bebas'; font-size:28.7964px;">07</text>
		</g>
	</g>
	<g>
		<g style="opacity:0.68;">
			
				<linearGradient id="SVGID_00000067238442728620198160000000989694295899260553_" gradientUnits="userSpaceOnUse" x1="185.7663" y1="361.0723" x2="263.8932" y2="361.0723" gradientTransform="matrix(-0.0256 0.9997 -0.9997 -0.0256 752.5339 162.8085)">
				<stop  offset="0.0012" style="stop-color:#F60DB2"/>
				<stop  offset="0.0826" style="stop-color:#F011BA"/>
				<stop  offset="0.4726" style="stop-color:#D91FDD"/>
				<stop  offset="0.7919" style="stop-color:#CA29F3"/>
				<stop  offset="0.9988" style="stop-color:#C52CFB"/>
			</linearGradient>
			<path style="opacity:0.68;fill:url(#SVGID_00000067238442728620198160000000989694295899260553_);" d="M377.841,340.005
				c-1.095,1.171-1.044,3.019,0.114,4.126l3.409,3.26c1.158,1.107,1.209,2.955,0.114,4.126c-1.095,1.171-2.922,1.223-4.08,0.116
				l-7.079-6.769c-1.158-1.107-2.985-1.056-4.08,0.116c-1.095,1.171-1.044,3.019,0.114,4.126l6.291,6.016
				c1.158,1.107,1.209,2.955,0.114,4.126c-1.095,1.171-2.922,1.223-4.08,0.116c-3.064-2.93-6.129-5.86-9.193-8.791
				c-1.394-1.802-3.844-1.778-4.899-0.582c-0.888,1.007-0.87,2.935,0.375,4.289c2.377,2.273,4.754,4.546,7.131,6.819
				c1.158,1.107,1.209,2.955,0.114,4.126c-1.095,1.171-2.922,1.223-4.08,0.116l0.466,0.446c-1.158-1.108-2.985-1.056-4.08,0.116
				c-1.095,1.171-1.044,3.019,0.114,4.126l0.846,0.809c1.158,1.107,1.209,2.955,0.114,4.126c-1.095,1.171-2.922,1.223-4.08,0.116
				l0.26,0.249c-1.158-1.107-2.985-1.056-4.08,0.115c-1.095,1.171-1.044,3.019,0.114,4.126l38.795,37.097
				c1.158,1.107,2.985,1.056,4.08-0.116c1.095-1.171,1.044-3.019-0.114-4.126l-1.049-1.003c-1.158-1.108-1.209-2.955-0.114-4.126
				c1.095-1.171,2.922-1.223,4.08-0.116l6.874,6.573c1.158,1.107,2.985,1.055,4.08-0.116c1.095-1.171,1.044-3.019-0.114-4.126
				l-0.336-0.321c-0.796-0.998-0.633-1.88-0.447-2.331c0.247-0.598,0.424-0.783,0.769-1.176c0.035-0.033,0.069-0.068,0.102-0.104
				c1.095-1.171,1.044-3.019-0.114-4.126l-9.433-9.022c-1.078-1.113-0.902-2.123-0.698-2.616c0.258-0.625,0.439-0.797,0.815-1.23
				c0.01-0.01,0.02-0.019,0.029-0.03c1.095-1.171,1.044-3.019-0.114-4.126l-3.67-3.509c-1.158-1.107-1.209-2.955-0.114-4.126
				c1.095-1.171,2.922-1.223,4.08-0.116l12.058,11.53c1.108,1.059,2.827,1.057,3.932,0.03l0.001,0.012
				c0.552-0.532,0.666-0.735,1.35-1.071c0.476-0.233,1.463-0.468,2.622,0.558l4.448,4.25c1.158,1.107,2.985,1.056,4.08-0.116
				c1.095-1.171,1.044-3.019-0.114-4.126l-2.893-2.767c-1.078-1.113-0.902-2.123-0.698-2.616c0.228-0.553,0.397-0.752,0.694-1.091
				c0.055-0.051,0.11-0.103,0.162-0.159c1.095-1.171,1.044-3.019-0.114-4.126l-11.1-10.615c1.125,0.632,2.569,0.452,3.494-0.538
				c1.095-1.171,1.044-3.019-0.114-4.126l-14.639-13.999c-1.158-1.107-2.985-1.056-4.08,0.116c-0.925,0.99-1.023,2.457-0.335,3.558
				l-12.02-11.494C380.763,338.782,378.936,338.834,377.841,340.005z"/>
			
				<linearGradient id="SVGID_00000056416164791548324780000000032944961641538476_" gradientUnits="userSpaceOnUse" x1="239.6478" y1="383.2542" x2="253.8577" y2="383.2542" gradientTransform="matrix(-0.0256 0.9997 -0.9997 -0.0256 752.5339 162.8085)">
				<stop  offset="0.0012" style="stop-color:#F60DB2"/>
				<stop  offset="0.0826" style="stop-color:#F011BA"/>
				<stop  offset="0.4726" style="stop-color:#D91FDD"/>
				<stop  offset="0.7919" style="stop-color:#CA29F3"/>
				<stop  offset="0.9988" style="stop-color:#C52CFB"/>
			</linearGradient>
			<path style="opacity:0.68;fill:url(#SVGID_00000056416164791548324780000000032944961641538476_);" d="M369.105,406.073
				c-1.156,1.11-2.982,1.063-4.08-0.106l-8.061-8.582c-1.098-1.168-1.051-3.016,0.105-4.126l0,0c1.155-1.11,2.982-1.063,4.08,0.106
				l8.061,8.582C370.307,403.115,370.26,404.962,369.105,406.073L369.105,406.073z"/>
			
				<linearGradient id="SVGID_00000069397765953535912820000015238511817242517418_" gradientUnits="userSpaceOnUse" x1="192.984" y1="333.0931" x2="213.2334" y2="333.0931" gradientTransform="matrix(-0.0256 0.9997 -0.9997 -0.0256 752.5339 162.8085)">
				<stop  offset="0.0012" style="stop-color:#F60DB2"/>
				<stop  offset="0.0826" style="stop-color:#F011BA"/>
				<stop  offset="0.4726" style="stop-color:#D91FDD"/>
				<stop  offset="0.7919" style="stop-color:#CA29F3"/>
				<stop  offset="0.9988" style="stop-color:#C52CFB"/>
			</linearGradient>
			<path style="opacity:0.68;fill:url(#SVGID_00000069397765953535912820000015238511817242517418_);" d="M423.275,366.822
				c-1.156,1.11-2.982,1.063-4.08-0.106l-13.877-14.772c-1.098-1.168-1.051-3.016,0.105-4.126l0,0
				c1.155-1.11,2.982-1.063,4.08,0.106l13.877,14.772C424.477,363.865,424.43,365.712,423.275,366.822L423.275,366.822z"/>
			
				<linearGradient id="SVGID_00000019639260668587241010000005458288441580328085_" gradientUnits="userSpaceOnUse" x1="190.3993" y1="396.8465" x2="196.4674" y2="396.8465" gradientTransform="matrix(-0.0256 0.9997 -0.9997 -0.0256 752.5339 162.8085)">
				<stop  offset="0.0012" style="stop-color:#F60DB2"/>
				<stop  offset="0.0826" style="stop-color:#F011BA"/>
				<stop  offset="0.4726" style="stop-color:#D91FDD"/>
				<stop  offset="0.7919" style="stop-color:#CA29F3"/>
				<stop  offset="0.9988" style="stop-color:#C52CFB"/>
			</linearGradient>
			<path style="opacity:0.68;fill:url(#SVGID_00000019639260668587241010000005458288441580328085_);" d="M352.93,348.215
				c-1.201,1.154-3.1,1.105-4.242-0.11c-1.141-1.215-1.092-3.135,0.109-4.289c1.201-1.154,3.1-1.105,4.242,0.11
				C354.18,345.141,354.132,347.061,352.93,348.215z"/>
			
				<linearGradient id="SVGID_00000130622244679965875200000015656335977729013435_" gradientUnits="userSpaceOnUse" x1="184.7171" y1="345.3244" x2="190.7852" y2="345.3244" gradientTransform="matrix(-0.0256 0.9997 -0.9997 -0.0256 752.5339 162.8085)">
				<stop  offset="0.0012" style="stop-color:#F60DB2"/>
				<stop  offset="0.0826" style="stop-color:#F011BA"/>
				<stop  offset="0.4726" style="stop-color:#D91FDD"/>
				<stop  offset="0.7919" style="stop-color:#CA29F3"/>
				<stop  offset="0.9988" style="stop-color:#C52CFB"/>
			</linearGradient>
			<path style="opacity:0.68;fill:url(#SVGID_00000130622244679965875200000015656335977729013435_);" d="M404.581,343.854
				c-1.201,1.154-3.1,1.105-4.242-0.11c-1.141-1.215-1.092-3.135,0.109-4.289c1.201-1.154,3.1-1.105,4.242,0.11
				C405.831,340.78,405.782,342.7,404.581,343.854z"/>
			
				<linearGradient id="SVGID_00000135674795777101362920000009737159453662812551_" gradientUnits="userSpaceOnUse" x1="190.6916" y1="400.6207" x2="210.941" y2="400.6207" gradientTransform="matrix(-0.0256 0.9997 -0.9997 -0.0256 752.5339 162.8085)">
				<stop  offset="0.0012" style="stop-color:#F60DB2"/>
				<stop  offset="0.0826" style="stop-color:#F011BA"/>
				<stop  offset="0.4726" style="stop-color:#D91FDD"/>
				<stop  offset="0.7919" style="stop-color:#CA29F3"/>
				<stop  offset="0.9988" style="stop-color:#C52CFB"/>
			</linearGradient>
			<path style="opacity:0.68;fill:url(#SVGID_00000135674795777101362920000009737159453662812551_);" d="M355.828,362.802
				c-1.156,1.11-2.982,1.063-4.08-0.106l-13.876-14.772c-1.098-1.168-1.051-3.016,0.104-4.126l0,0
				c1.155-1.11,2.982-1.063,4.08,0.106l13.877,14.772C357.03,359.844,356.983,361.691,355.828,362.802L355.828,362.802z"/>
			
				<linearGradient id="SVGID_00000039097245276200288130000007326812212734514844_" gradientUnits="userSpaceOnUse" x1="180.5521" y1="372.8483" x2="186.6202" y2="372.8483" gradientTransform="matrix(-0.0256 0.9997 -0.9997 -0.0256 752.5339 162.8085)">
				<stop  offset="0.0012" style="stop-color:#F60DB2"/>
				<stop  offset="0.0826" style="stop-color:#F011BA"/>
				<stop  offset="0.4726" style="stop-color:#D91FDD"/>
				<stop  offset="0.7919" style="stop-color:#CA29F3"/>
				<stop  offset="0.9988" style="stop-color:#C52CFB"/>
			</linearGradient>
			<path style="opacity:0.68;fill:url(#SVGID_00000039097245276200288130000007326812212734514844_);" d="M377.173,338.986
				c-1.201,1.154-3.1,1.105-4.242-0.11c-1.141-1.215-1.092-3.135,0.109-4.289c1.201-1.154,3.1-1.105,4.242,0.11
				C378.423,335.911,378.374,337.832,377.173,338.986z"/>
		</g>
		<g>
			<circle style="fill:#2D2D2D;" cx="384.81" cy="375.344" r="25.769"/>
			<text transform="matrix(1 0 0 1 371.2123 386.8022)" style="fill:#FFFFFF; font-family:'Bebas'; font-size:28.7964px;">10</text>
		</g>
	</g>
	<g>
		
			<linearGradient id="SVGID_00000056410868170894342500000014594266306937240250_" gradientUnits="userSpaceOnUse" x1="225.0321" y1="311.1204" x2="309.6379" y2="311.1204" gradientTransform="matrix(1 0 0 1 -2.2728 67.4835)">
			<stop  offset="0.0012" style="stop-color:#FF9A25"/>
			<stop  offset="0.1544" style="stop-color:#FF8543"/>
			<stop  offset="0.4303" style="stop-color:#FF6374"/>
			<stop  offset="0.6729" style="stop-color:#FF4A97"/>
			<stop  offset="0.8707" style="stop-color:#FF3BAD"/>
			<stop  offset="0.9988" style="stop-color:#FF35B5"/>
		</linearGradient>
		<path style="opacity:0.68;fill:url(#SVGID_00000056410868170894342500000014594266306937240250_);" d="M306.445,371.383
			c-1.227-1.227-3.217-1.227-4.444,0l-3.612,3.612c-1.227,1.227-3.217,1.227-4.444,0c-1.227-1.227-1.227-3.217,0-4.444l7.501-7.501
			c1.227-1.227,1.227-3.217,0-4.444c-1.227-1.227-3.217-1.227-4.444,0l-6.666,6.666c-1.227,1.227-3.217,1.227-4.444,0
			c-1.227-1.227-1.227-3.217,0-4.444c3.247-3.247,6.494-6.494,9.74-9.74c1.982-1.463,2.031-4.13,0.776-5.315
			c-1.056-0.997-3.132-1.035-4.627,0.279c-2.518,2.518-5.037,5.037-7.555,7.555c-1.227,1.227-3.217,1.227-4.444,0
			c-1.227-1.227-1.227-3.217,0-4.444l-0.494,0.494c1.227-1.227,1.227-3.217,0-4.444c-1.227-1.227-3.217-1.227-4.444,0l-0.897,0.897
			c-1.227,1.227-3.217,1.227-4.444,0c-1.227-1.227-1.227-3.217,0-4.444l-0.276,0.276c1.227-1.227,1.227-3.217,0-4.444
			c-1.227-1.227-3.217-1.227-4.444,0l-41.105,41.105c-1.227,1.227-1.227,3.217,0,4.444c1.227,1.227,3.217,1.227,4.444,0l1.111-1.111
			c1.227-1.227,3.217-1.227,4.444,0c1.227,1.227,1.227,3.217,0,4.444l-7.283,7.283c-1.227,1.227-1.227,3.217,0,4.444
			c1.227,1.227,3.217,1.227,4.444,0l0.356-0.356c1.098-0.836,2.043-0.632,2.522-0.416c0.636,0.287,0.829,0.485,1.243,0.872
			c0.035,0.039,0.071,0.077,0.109,0.114c1.227,1.227,3.217,1.227,4.444,0l9.996-9.995c1.23-1.14,2.312-0.917,2.837-0.681
			c0.664,0.299,0.845,0.502,1.299,0.925c0.01,0.011,0.02,0.022,0.031,0.033c1.227,1.227,3.217,1.227,4.444,0l3.888-3.888
			c1.227-1.227,3.217-1.227,4.444,0c1.227,1.227,1.227,3.217,0,4.444l-12.776,12.776c-1.174,1.174-1.224,3.045-0.152,4.279l-0.012,0
			c0.556,0.617,0.771,0.747,1.111,1.502c0.237,0.525,0.459,1.606-0.681,2.837l-4.709,4.713c-1.227,1.227-1.227,3.217,0,4.444
			c1.227,1.227,3.217,1.227,4.444,0l3.065-3.065c1.23-1.14,2.312-0.918,2.837-0.681c0.588,0.265,0.797,0.455,1.153,0.788
			c0.053,0.062,0.108,0.122,0.166,0.181c1.227,1.227,3.217,1.227,4.444,0l11.761-11.761c-0.715,1.206-0.565,2.782,0.472,3.819
			c1.227,1.227,3.217,1.227,4.444,0l15.511-15.511c1.227-1.227,1.227-3.216,0-4.444c-1.037-1.037-2.613-1.187-3.819-0.472
			l12.735-12.735C307.672,374.599,307.672,372.61,306.445,371.383z"/>
		
			<linearGradient id="SVGID_00000178884728520503282850000008040403540660590507_" gradientUnits="userSpaceOnUse" x1="233.4901" y1="350.1941" x2="253.7354" y2="350.1941">
			<stop  offset="0.0012" style="stop-color:#FF9A25"/>
			<stop  offset="0.1544" style="stop-color:#FF8543"/>
			<stop  offset="0.4303" style="stop-color:#FF6374"/>
			<stop  offset="0.6729" style="stop-color:#FF4A97"/>
			<stop  offset="0.8707" style="stop-color:#FF3BAD"/>
			<stop  offset="0.9988" style="stop-color:#FF35B5"/>
		</linearGradient>
		<path style="opacity:0.68;fill:url(#SVGID_00000178884728520503282850000008040403540660590507_);" d="M252.88,340.926
			c1.14,1.14,1.14,2.988,0,4.128l-14.408,14.408c-1.14,1.14-2.988,1.14-4.128,0l0,0c-1.14-1.14-1.14-2.988,0-4.128l14.408-14.408
			C249.893,339.786,251.741,339.786,252.88,340.926L252.88,340.926z"/>
		
			<linearGradient id="SVGID_00000013877319245638346040000013303854756743593125_" gradientUnits="userSpaceOnUse" x1="217.4984" y1="366.2478" x2="228.0202" y2="366.2478">
			<stop  offset="0.0012" style="stop-color:#FF9A25"/>
			<stop  offset="0.1544" style="stop-color:#FF8543"/>
			<stop  offset="0.4303" style="stop-color:#FF6374"/>
			<stop  offset="0.6729" style="stop-color:#FF4A97"/>
			<stop  offset="0.8707" style="stop-color:#FF3BAD"/>
			<stop  offset="0.9988" style="stop-color:#FF35B5"/>
		</linearGradient>
		
			<circle style="opacity:0.68;fill:url(#SVGID_00000013877319245638346040000013303854756743593125_);" cx="222.759" cy="366.248" r="5.261"/>
		<g>
			<circle style="fill:#2D2D2D;" cx="265.634" cy="375.344" r="25.769"/>
			<text transform="matrix(1 0 0 1 250.0361 386.8022)" style="fill:#FFFFFF; font-family:'Bebas'; font-size:28.7964px;">09</text>
		</g>
	</g>
	<g>
		
			<linearGradient id="SVGID_00000019643721703382864660000017894048048593399741_" gradientUnits="userSpaceOnUse" x1="108.6268" y1="375.581" x2="186.7538" y2="375.581" gradientTransform="matrix(0.9997 0.0256 -0.0256 0.9997 11.2147 -7.1782)">
			<stop  offset="0" style="stop-color:#00EDE1"/>
			<stop  offset="0.2054" style="stop-color:#00E5E3"/>
			<stop  offset="0.5224" style="stop-color:#00CFE9"/>
			<stop  offset="0.9095" style="stop-color:#00ACF3"/>
			<stop  offset="1" style="stop-color:#00A3F6"/>
		</linearGradient>
		<path style="opacity:0.68;fill:url(#SVGID_00000019643721703382864660000017894048048593399741_);" d="M110.926,380.043
			c1.171,1.095,3.019,1.044,4.126-0.114l3.26-3.409c1.107-1.158,2.955-1.209,4.126-0.114c1.171,1.095,1.223,2.922,0.116,4.08
			l-6.769,7.079c-1.107,1.158-1.056,2.985,0.116,4.08c1.171,1.095,3.019,1.044,4.126-0.114l6.016-6.291
			c1.108-1.158,2.955-1.209,4.126-0.114c1.171,1.095,1.223,2.922,0.116,4.08c-2.93,3.064-5.86,6.129-8.791,9.193
			c-1.802,1.394-1.778,3.844-0.582,4.899c1.007,0.888,2.935,0.87,4.289-0.375c2.273-2.377,4.546-4.754,6.819-7.131
			c1.107-1.158,2.955-1.209,4.126-0.114c1.171,1.095,1.223,2.922,0.116,4.08l0.446-0.466c-1.108,1.158-1.056,2.985,0.116,4.08
			c1.171,1.095,3.019,1.044,4.126-0.114l0.809-0.846c1.107-1.158,2.955-1.209,4.126-0.114c1.171,1.095,1.223,2.922,0.116,4.08
			l0.249-0.26c-1.107,1.158-1.056,2.985,0.115,4.08c1.171,1.095,3.019,1.044,4.126-0.114l37.097-38.795
			c1.107-1.158,1.056-2.985-0.116-4.08c-1.171-1.095-3.019-1.044-4.126,0.114l-1.003,1.049c-1.108,1.158-2.955,1.209-4.126,0.114
			c-1.171-1.095-1.223-2.922-0.116-4.08l6.573-6.874c1.107-1.158,1.055-2.985-0.116-4.08c-1.171-1.095-3.019-1.044-4.126,0.114
			l-0.321,0.336c-0.998,0.796-1.88,0.633-2.331,0.447c-0.598-0.247-0.782-0.424-1.176-0.769c-0.033-0.035-0.068-0.069-0.104-0.102
			c-1.171-1.095-3.019-1.044-4.126,0.114l-9.022,9.433c-1.113,1.078-2.123,0.902-2.616,0.698c-0.625-0.258-0.797-0.439-1.23-0.815
			c-0.01-0.01-0.019-0.02-0.03-0.029c-1.171-1.095-3.019-1.044-4.126,0.114l-3.509,3.67c-1.107,1.158-2.955,1.209-4.126,0.114
			c-1.171-1.095-1.223-2.922-0.116-4.08l11.53-12.058c1.059-1.108,1.057-2.827,0.03-3.932l0.012-0.001
			c-0.532-0.552-0.735-0.666-1.071-1.35c-0.233-0.476-0.468-1.463,0.558-2.622l4.25-4.448c1.107-1.158,1.056-2.985-0.116-4.08
			c-1.171-1.095-3.019-1.044-4.126,0.114l-2.767,2.893c-1.113,1.078-2.123,0.902-2.616,0.698c-0.553-0.228-0.752-0.397-1.091-0.694
			c-0.051-0.055-0.103-0.11-0.159-0.162c-1.171-1.095-3.019-1.044-4.126,0.114l-10.614,11.1c0.632-1.125,0.452-2.569-0.538-3.494
			c-1.171-1.095-3.019-1.044-4.126,0.114l-13.999,14.639c-1.107,1.158-1.056,2.985,0.116,4.08c0.99,0.925,2.457,1.023,3.558,0.335
			l-11.494,12.02C109.703,377.121,109.755,378.948,110.926,380.043z"/>
		
			<linearGradient id="SVGID_00000181078591816566226340000013057808736784479929_" gradientUnits="userSpaceOnUse" x1="162.5083" y1="397.763" x2="176.7183" y2="397.763" gradientTransform="matrix(0.9997 0.0256 -0.0256 0.9997 11.2147 -7.1782)">
			<stop  offset="0" style="stop-color:#00EDE1"/>
			<stop  offset="0.2054" style="stop-color:#00E5E3"/>
			<stop  offset="0.5224" style="stop-color:#00CFE9"/>
			<stop  offset="0.9095" style="stop-color:#00ACF3"/>
			<stop  offset="1" style="stop-color:#00A3F6"/>
		</linearGradient>
		<path style="opacity:0.68;fill:url(#SVGID_00000181078591816566226340000013057808736784479929_);" d="M176.993,388.779
			c1.11,1.156,1.063,2.982-0.106,4.08l-8.582,8.061c-1.168,1.098-3.016,1.051-4.126-0.105l0,0c-1.11-1.155-1.063-2.982,0.106-4.08
			l8.582-8.061C174.036,387.577,175.883,387.624,176.993,388.779L176.993,388.779z"/>
		
			<linearGradient id="SVGID_00000114760651306167124960000010195468146921394077_" gradientUnits="userSpaceOnUse" x1="115.8446" y1="347.6019" x2="136.0939" y2="347.6019" gradientTransform="matrix(0.9997 0.0256 -0.0256 0.9997 11.2147 -7.1782)">
			<stop  offset="0" style="stop-color:#00EDE1"/>
			<stop  offset="0.2054" style="stop-color:#00E5E3"/>
			<stop  offset="0.5224" style="stop-color:#00CFE9"/>
			<stop  offset="0.9095" style="stop-color:#00ACF3"/>
			<stop  offset="1" style="stop-color:#00A3F6"/>
		</linearGradient>
		<path style="opacity:0.68;fill:url(#SVGID_00000114760651306167124960000010195468146921394077_);" d="M137.743,334.61
			c1.11,1.156,1.063,2.982-0.106,4.08l-14.772,13.877c-1.168,1.098-3.016,1.051-4.126-0.105l0,0c-1.11-1.155-1.063-2.982,0.106-4.08
			l14.772-13.877C134.786,333.407,136.633,333.454,137.743,334.61L137.743,334.61z"/>
		
			<linearGradient id="SVGID_00000021817720143977864930000017244212712824786103_" gradientUnits="userSpaceOnUse" x1="113.2598" y1="411.3552" x2="119.328" y2="411.3552" gradientTransform="matrix(0.9997 0.0256 -0.0256 0.9997 11.2147 -7.1782)">
			<stop  offset="0" style="stop-color:#00EDE1"/>
			<stop  offset="0.2054" style="stop-color:#00E5E3"/>
			<stop  offset="0.5224" style="stop-color:#00CFE9"/>
			<stop  offset="0.9095" style="stop-color:#00ACF3"/>
			<stop  offset="1" style="stop-color:#00A3F6"/>
		</linearGradient>
		<path style="opacity:0.68;fill:url(#SVGID_00000021817720143977864930000017244212712824786103_);" d="M119.136,404.954
			c1.154,1.201,1.105,3.1-0.11,4.242c-1.215,1.141-3.135,1.092-4.289-0.109c-1.154-1.201-1.105-3.1,0.11-4.242
			C116.061,403.704,117.982,403.753,119.136,404.954z"/>
		
			<linearGradient id="SVGID_00000057137237353606717080000016796210314506528688_" gradientUnits="userSpaceOnUse" x1="107.5776" y1="359.8331" x2="113.6458" y2="359.8331" gradientTransform="matrix(0.9997 0.0256 -0.0256 0.9997 11.2147 -7.1782)">
			<stop  offset="0" style="stop-color:#00EDE1"/>
			<stop  offset="0.2054" style="stop-color:#00E5E3"/>
			<stop  offset="0.5224" style="stop-color:#00CFE9"/>
			<stop  offset="0.9095" style="stop-color:#00ACF3"/>
			<stop  offset="1" style="stop-color:#00A3F6"/>
		</linearGradient>
		<path style="opacity:0.68;fill:url(#SVGID_00000057137237353606717080000016796210314506528688_);" d="M114.775,353.303
			c1.154,1.201,1.105,3.1-0.11,4.242c-1.215,1.141-3.135,1.092-4.289-0.109c-1.154-1.201-1.105-3.1,0.11-4.242
			C111.7,352.053,113.621,352.102,114.775,353.303z"/>
		
			<linearGradient id="SVGID_00000037666139026925205740000002417823905996388272_" gradientUnits="userSpaceOnUse" x1="113.5522" y1="415.1294" x2="133.8015" y2="415.1294" gradientTransform="matrix(0.9997 0.0256 -0.0256 0.9997 11.2147 -7.1782)">
			<stop  offset="0" style="stop-color:#00EDE1"/>
			<stop  offset="0.2054" style="stop-color:#00E5E3"/>
			<stop  offset="0.5224" style="stop-color:#00CFE9"/>
			<stop  offset="0.9095" style="stop-color:#00ACF3"/>
			<stop  offset="1" style="stop-color:#00A3F6"/>
		</linearGradient>
		<path style="opacity:0.68;fill:url(#SVGID_00000037666139026925205740000002417823905996388272_);" d="M133.722,402.056
			c1.11,1.156,1.063,2.982-0.106,4.08l-14.772,13.876c-1.168,1.098-3.016,1.051-4.126-0.105l0,0c-1.11-1.155-1.063-2.982,0.106-4.08
			l14.772-13.877C130.765,400.854,132.612,400.901,133.722,402.056L133.722,402.056z"/>
		<g>
			<circle style="fill:#2D2D2D;" cx="146.458" cy="375.344" r="25.769"/>
			<text transform="matrix(1 0 0 1 130.8598 386.8022)" style="fill:#FFFFFF; font-family:'Bebas'; font-size:28.7964px;">08</text>
		</g>
		
			<linearGradient id="SVGID_00000054988916702786979840000002547746253065307521_" gradientUnits="userSpaceOnUse" x1="103.4126" y1="387.357" x2="109.4808" y2="387.357" gradientTransform="matrix(0.9997 0.0256 -0.0256 0.9997 11.2147 -7.1782)">
			<stop  offset="0" style="stop-color:#00EDE1"/>
			<stop  offset="0.2054" style="stop-color:#00E5E3"/>
			<stop  offset="0.5224" style="stop-color:#00CFE9"/>
			<stop  offset="0.9095" style="stop-color:#00ACF3"/>
			<stop  offset="1" style="stop-color:#00A3F6"/>
		</linearGradient>
		<path style="opacity:0.68;fill:url(#SVGID_00000054988916702786979840000002547746253065307521_);" d="M109.906,380.711
			c1.154,1.201,1.105,3.1-0.11,4.242c-1.215,1.141-3.135,1.092-4.289-0.109c-1.154-1.201-1.105-3.1,0.11-4.242
			C106.832,379.461,108.752,379.51,109.906,380.711z"/>
	</g>
</g>
<g id="DESIGNED_BY_FREEPIK">
	<g>
		<g id="XMLID_319_">
			<g id="XMLID_338_">
				<path id="XMLID_346_" style="fill:#1D262D;" d="M250.771,464.892c-0.489,0.502-0.91,1.055-1.255,1.646l-0.527-0.273
					c-0.075-0.336-0.396-0.568-0.746-0.527c-0.375,0.044-0.643,0.384-0.599,0.759c0.044,0.375,0.384,0.643,0.759,0.599
					c0.073-0.009,0.144-0.029,0.207-0.06l0.512,0.266c-0.284,0.627-0.49,1.289-0.61,1.975l0.845,0.149
					c0.261-1.479,0.962-2.839,2.029-3.933L250.771,464.892z"/>
				<path id="XMLID_345_" style="fill:#1D262D;" d="M256.985,462.285c-0.193,0-0.386,0.007-0.577,0.019l-0.083-0.709
					c0.212-0.169,0.335-0.44,0.301-0.729c-0.052-0.445-0.455-0.764-0.9-0.711c-0.445,0.052-0.764,0.455-0.711,0.9
					c0.033,0.288,0.214,0.522,0.458,0.639l0.083,0.707c-0.809,0.131-1.589,0.375-2.332,0.731l0.37,0.775
					c1.058-0.507,2.199-0.763,3.392-0.763c0.563,0,1.124,0.06,1.671,0.179l0.182-0.84
					C258.232,462.352,257.608,462.285,256.985,462.285z"/>
				<path id="XMLID_344_" style="fill:#1D262D;" d="M264.461,465.17c0.375-0.046,0.642-0.387,0.596-0.762s-0.387-0.641-0.762-0.596
					c-0.351,0.043-0.606,0.345-0.6,0.69l-0.472,0.411c-0.473-0.486-1.007-0.92-1.594-1.29l-0.458,0.727
					c1.285,0.81,2.288,1.955,2.903,3.313l0.782-0.354c-0.284-0.628-0.644-1.214-1.067-1.75l0.455-0.397
					C264.315,465.175,264.388,465.179,264.461,465.17z"/>
				<path id="XMLID_343_" style="fill:#1D262D;" d="M256.365,473.845c-0.436,0.026-0.877,0.04-1.309,0.04
					c-0.997,0-1.963-0.069-2.807-0.203c-0.442-0.07-0.958-0.176-1.438-0.331c1.185,2.107,3.476,3.539,6.102,3.539
					c3.233,0,5.959-2.17,6.737-5.1c-0.772,0.509-1.705,0.935-2.784,1.271C259.53,473.478,257.972,473.748,256.365,473.845z"/>
				<path id="XMLID_339_" style="fill:#1D262D;" d="M256.985,464.002c-3.796,0-6.884,3.02-6.884,6.73
					c0,0.482,0.052,0.961,0.155,1.428c0.763,0.547,3.064,1.008,6.055,0.828c3.261-0.196,5.999-1.084,7.556-2.444
					c-0.006-0.221-0.023-0.441-0.051-0.659C263.385,466.531,260.449,464.002,256.985,464.002z M254.539,471.379
					c-1.154,0-2.095-0.939-2.095-2.095c0-1.154,0.94-2.095,2.095-2.095c1.155,0,2.095,0.94,2.095,2.095
					C256.634,470.44,255.695,471.379,254.539,471.379z M259.905,470.351c-0.85,0-1.541-0.69-1.541-1.54
					c0-0.85,0.691-1.541,1.541-1.541c0.85,0,1.54,0.691,1.54,1.541C261.445,469.66,260.754,470.351,259.905,470.351z"/>
			</g>
			<path id="XMLID_336_" style="fill:#1D262D;" d="M275.108,466.116c-0.334-0.132-0.913-0.35-1.565-0.269
				c-0.624,0.077-0.956,0.386-0.956,1.14v0.98h2.522v1.944h-2.522v6.178h-2.188v-6.178h-1.517v-1.944h1.517v-1.006
				c0-1.902,1.015-3.151,2.908-3.151c0.728,0,1.311,0.138,1.801,0.35V466.116z"/>
			<path id="XMLID_334_" style="fill:#1D262D;" d="M280.433,469.89c-0.2-0.034-0.405-0.053-0.597-0.053
				c-1.014,0-1.709,0.62-1.709,1.827v4.426h-2.188v-8.122h2.12v0.889c0.511-0.763,1.291-1.106,2.288-1.106
				c0.47,0,0.96,0.145,1.239,0.381L280.433,469.89z"/>
			<path id="XMLID_331_" style="fill:#1D262D;" d="M289.115,472.017c0,0.251-0.017,0.553-0.042,0.737h-5.758
				c0.235,1.173,1.057,1.685,2.087,1.685c0.704,0,1.467-0.285,2.054-0.779l1.282,1.408c-0.922,0.846-2.096,1.231-3.461,1.231
				c-2.489,0-4.216-1.693-4.216-4.249c0-2.557,1.676-4.3,4.106-4.3C287.505,467.75,289.107,469.485,289.115,472.017z
				 M283.324,471.262h3.596c-0.201-1.039-0.83-1.626-1.769-1.626C284.12,469.636,283.516,470.256,283.324,471.262z"/>
			<path id="XMLID_328_" style="fill:#1D262D;" d="M297.782,472.017c0,0.251-0.017,0.553-0.042,0.737h-5.758
				c0.234,1.173,1.056,1.685,2.087,1.685c0.704,0,1.467-0.285,2.054-0.779l1.282,1.408c-0.922,0.846-2.096,1.231-3.462,1.231
				c-2.489,0-4.216-1.693-4.216-4.249c0-2.557,1.677-4.3,4.107-4.3C296.172,467.75,297.773,469.485,297.782,472.017z
				 M291.99,471.262h3.596c-0.201-1.039-0.83-1.626-1.768-1.626C292.787,469.636,292.183,470.256,291.99,471.262z"/>
			<path id="XMLID_325_" style="fill:#1D262D;" d="M307.232,472.024c0,2.439-1.692,4.274-3.931,4.274
				c-1.09,0-1.86-0.428-2.389-1.056v4.199h-2.179v-11.475h2.137v0.897c0.528-0.662,1.308-1.115,2.423-1.115
				C305.539,467.75,307.232,469.586,307.232,472.024z M300.804,472.024c0,1.282,0.846,2.238,2.087,2.238
				c1.29,0,2.095-0.998,2.095-2.238c0-1.24-0.805-2.237-2.095-2.237C301.65,469.787,300.804,470.742,300.804,472.024z"/>
			<path id="XMLID_322_" style="fill:#1D262D;" d="M310.747,465.311c0,0.787-0.612,1.391-1.399,1.391
				c-0.788,0-1.392-0.603-1.392-1.391c0-0.788,0.603-1.408,1.392-1.408C310.134,463.903,310.747,464.523,310.747,465.311z
				 M310.454,476.09h-2.188v-8.122h2.188V476.09z"/>
			<path id="XMLID_320_" style="fill:#1D262D;" d="M314.104,470.859l3.059-2.892h2.683l-3.939,3.822l3.965,4.3h-2.69l-3.076-3.286
				v3.286h-2.188v-12.069h2.188V470.859z"/>
		</g>
		<g>
			<path style="fill:#1D262D;" d="M165.058,476.016v-1.194c-0.597,0.814-1.576,1.394-2.704,1.394c-2.09,0-3.566-1.592-3.566-4.196
				c0-2.555,1.459-4.213,3.566-4.213c1.078,0,2.057,0.53,2.704,1.409v-4.263h1.244v11.064H165.058z M165.058,473.843v-3.632
				c-0.448-0.697-1.41-1.294-2.405-1.294c-1.609,0-2.571,1.326-2.571,3.102c0,1.774,0.962,3.085,2.571,3.085
				C163.648,475.103,164.61,474.54,165.058,473.843z"/>
			<path style="fill:#1D262D;" d="M167.911,472.002c0-2.322,1.659-4.196,3.948-4.196c2.422,0,3.848,1.891,3.848,4.296v0.315h-6.485
				c0.1,1.509,1.161,2.77,2.886,2.77c0.912,0,1.841-0.365,2.471-1.012l0.597,0.813c-0.796,0.797-1.874,1.228-3.185,1.228
				C169.619,476.215,167.911,474.507,167.911,472.002z M171.842,468.834c-1.708,0-2.554,1.443-2.621,2.67h5.258
				C174.462,470.31,173.666,468.834,171.842,468.834z"/>
			<path style="fill:#1D262D;" d="M176.602,474.954l0.647-0.896c0.531,0.614,1.542,1.145,2.637,1.145
				c1.228,0,1.891-0.58,1.891-1.377c0-1.94-4.959-0.746-4.959-3.716c0-1.243,1.078-2.305,2.985-2.305
				c1.36,0,2.323,0.514,2.969,1.161l-0.581,0.862c-0.481-0.581-1.36-1.012-2.389-1.012c-1.095,0-1.775,0.547-1.775,1.261
				c0,1.758,4.96,0.597,4.96,3.715c0,1.344-1.078,2.422-3.151,2.422C178.526,476.215,177.414,475.816,176.602,474.954z"/>
			<path style="fill:#1D262D;" d="M184.381,466.03c0-0.464,0.382-0.846,0.83-0.846c0.464,0,0.846,0.382,0.846,0.846
				c0,0.465-0.381,0.829-0.846,0.829C184.763,466.859,184.381,466.495,184.381,466.03z M184.597,476.016v-8.012h1.244v8.012H184.597
				z"/>
			<path style="fill:#1D262D;" d="M187.898,478.072l0.63-0.929c0.664,0.797,1.46,1.095,2.604,1.095c1.327,0,2.571-0.647,2.571-2.404
				v-1.146c-0.581,0.814-1.559,1.427-2.687,1.427c-2.09,0-3.566-1.559-3.566-4.146c0-2.571,1.46-4.163,3.566-4.163
				c1.079,0,2.04,0.53,2.687,1.409v-1.211h1.244v7.78c0,2.653-1.858,3.483-3.815,3.483
				C189.772,479.268,188.843,479.002,187.898,478.072z M193.703,473.71v-3.499c-0.432-0.697-1.393-1.294-2.389-1.294
				c-1.609,0-2.571,1.276-2.571,3.052c0,1.758,0.962,3.052,2.571,3.052C192.31,475.021,193.271,474.407,193.703,473.71z"/>
			<path style="fill:#1D262D;" d="M202.428,476.016v-5.241c0-1.41-0.713-1.857-1.791-1.857c-0.979,0-1.908,0.597-2.372,1.244v5.854
				h-1.245v-8.012h1.245v1.162c0.564-0.664,1.658-1.36,2.853-1.36c1.675,0,2.555,0.846,2.555,2.587v5.623H202.428z"/>
			<path style="fill:#1D262D;" d="M205.281,472.002c0-2.322,1.659-4.196,3.948-4.196c2.421,0,3.848,1.891,3.848,4.296v0.315h-6.485
				c0.099,1.509,1.161,2.77,2.886,2.77c0.913,0,1.841-0.365,2.472-1.012l0.597,0.813c-0.796,0.797-1.875,1.228-3.185,1.228
				C206.989,476.215,205.281,474.507,205.281,472.002z M209.212,468.834c-1.709,0-2.555,1.443-2.621,2.67h5.258
				C211.832,470.31,211.036,468.834,209.212,468.834z"/>
			<path style="fill:#1D262D;" d="M220.475,476.016v-1.194c-0.597,0.814-1.576,1.394-2.704,1.394c-2.09,0-3.566-1.592-3.566-4.196
				c0-2.555,1.459-4.213,3.566-4.213c1.078,0,2.057,0.53,2.704,1.409v-4.263h1.244v11.064H220.475z M220.475,473.843v-3.632
				c-0.448-0.697-1.41-1.294-2.405-1.294c-1.609,0-2.571,1.326-2.571,3.102c0,1.774,0.962,3.085,2.571,3.085
				C219.064,475.103,220.026,474.54,220.475,473.843z"/>
			<path style="fill:#1D262D;" d="M227.656,476.016v-11.064h1.244v4.263c0.648-0.879,1.609-1.409,2.704-1.409
				c2.09,0,3.566,1.658,3.566,4.213c0,2.604-1.477,4.196-3.566,4.196c-1.128,0-2.106-0.58-2.704-1.394v1.194H227.656z
				 M231.289,475.103c1.626,0,2.588-1.31,2.588-3.085c0-1.775-0.962-3.102-2.588-3.102c-0.979,0-1.957,0.597-2.389,1.294v3.632
				C229.331,474.54,230.31,475.103,231.289,475.103z"/>
			<path style="fill:#1D262D;" d="M236.53,478.023c0.182,0.083,0.481,0.133,0.68,0.133c0.547,0,0.912-0.183,1.194-0.847l0.531-1.211
				l-3.351-8.095h1.343l2.671,6.569l2.654-6.569h1.359l-4.014,9.638c-0.481,1.161-1.294,1.609-2.355,1.626
				c-0.266,0-0.68-0.05-0.913-0.116L236.53,478.023z"/>
		</g>
	</g>
</g>
</svg>
